<svg width="24" height="24" viewBox="0 0 24 24" fill="none" xmlns="http://www.w3.org/2000/svg">
<path d="M12 0C8.8174 0 5.76516 1.26428 3.51472 3.51472C1.26428 5.76516 0 8.8174 0 12C0 15.1826 1.26428 18.2348 3.51472 20.4853C5.76516 22.7357 8.8174 24 12 24C15.1826 24 18.2348 22.7357 20.4853 20.4853C22.7357 18.2348 24 15.1826 24 12C24 8.8174 22.7357 5.76516 20.4853 3.51472C18.2348 1.26428 15.1826 0 12 0ZM15.1636 21.7833H15.0698C14.9999 21.7871 14.93 21.7765 14.8644 21.7523C14.7987 21.7281 14.7387 21.6908 14.688 21.6425C14.6411 21.5931 14.6046 21.5349 14.5804 21.4712C14.5562 21.4075 14.545 21.3397 14.5473 21.2716V19.8644C14.5538 19.3975 14.5582 18.9262 14.5582 18.4495C14.5564 18.1011 14.5054 17.7548 14.4065 17.4207C14.3135 17.0834 14.1257 16.7798 13.8655 16.5458C14.5624 16.4785 15.2475 16.3201 15.9033 16.0745C16.4565 15.8644 16.9569 15.5356 17.3695 15.1113C17.7764 14.6836 18.0785 14.1687 18.2531 13.6047C18.4669 12.9153 18.5684 12.1975 18.5542 11.4753C18.5574 10.9714 18.4687 10.4713 18.2924 9.99927C18.1143 9.52364 17.8449 9.08745 17.4993 8.71527C17.5735 8.52764 17.628 8.33236 17.6607 8.13273C17.7367 7.67559 17.7234 7.20806 17.6215 6.756C17.5668 6.49628 17.4928 6.24102 17.4 5.99236C17.3645 5.97867 17.3267 5.972 17.2887 5.97273H17.1796C16.9505 5.97491 16.7225 6.01309 16.5055 6.084C16.2655 6.15382 16.0298 6.24109 15.8018 6.34473C15.5751 6.44621 15.3544 6.56058 15.1407 6.68727C14.9461 6.80204 14.7551 6.92282 14.568 7.04945C12.8859 6.58068 11.1076 6.58068 9.42546 7.04945C9.23761 6.92395 9.04664 6.80319 8.85273 6.68727C8.63611 6.55916 8.41166 6.44475 8.18073 6.34473C7.95347 6.23839 7.71774 6.15118 7.476 6.084C7.26225 6.0133 7.03893 5.97577 6.81382 5.97273H6.70473C6.66737 5.97255 6.63033 5.97959 6.59564 5.99345C6.50091 6.24205 6.42328 6.49682 6.36327 6.756C6.26865 7.20917 6.25866 7.67593 6.33382 8.13273C6.36655 8.33236 6.42 8.52764 6.49418 8.71527C6.1489 9.08748 5.87984 9.52368 5.70218 9.99927C5.52587 10.4713 5.43714 10.9714 5.44036 11.4753C5.42593 12.1923 5.52384 12.9071 5.73055 13.5938C5.91273 14.1578 6.21382 14.676 6.61527 15.1113C7.02982 15.5324 7.52945 15.8607 8.08146 16.0745C8.73382 16.3255 9.41782 16.4858 10.1138 16.5513C9.91964 16.7269 9.76473 16.944 9.66218 17.184C9.564 17.4229 9.49527 17.6727 9.46146 17.928C9.09461 18.1039 8.69336 18.1963 8.28655 18.1985C7.90873 18.2133 7.53596 18.1079 7.22182 17.8975C6.92001 17.6742 6.66438 17.3945 6.46909 17.0738C6.38177 16.9394 6.2844 16.8117 6.17782 16.692C6.06523 16.5664 5.94104 16.4517 5.80691 16.3495C5.67402 16.2503 5.52833 16.1696 5.37382 16.1095C5.22218 16.0428 5.05837 16.0083 4.89273 16.008C4.85255 16.0093 4.81248 16.0129 4.77273 16.0189C4.71818 16.0189 4.66364 16.0255 4.61127 16.0385C4.56444 16.0507 4.52012 16.071 4.48036 16.0985C4.46278 16.1086 4.44811 16.123 4.43778 16.1404C4.42745 16.1578 4.42183 16.1776 4.42145 16.1978C4.42582 16.246 4.44068 16.2927 4.465 16.3345C4.48931 16.3763 4.52248 16.4123 4.56218 16.44C4.65382 16.5142 4.73127 16.5709 4.79345 16.6113L4.82182 16.632C4.956 16.7345 5.08364 16.8458 5.20364 16.9647C5.31709 17.0629 5.41855 17.1742 5.50473 17.2953C5.59527 17.4131 5.67273 17.5418 5.736 17.676C5.80909 17.8102 5.88655 17.964 5.96727 18.1385C6.15491 18.612 6.48873 19.0135 6.92073 19.284C7.37345 19.5273 7.88291 19.6484 8.39673 19.6353C8.57127 19.6353 8.74582 19.6244 8.92036 19.6047C9.09055 19.5775 9.26182 19.548 9.43309 19.5142V21.2575C9.43599 21.3276 9.4241 21.3976 9.39821 21.4628C9.37232 21.5281 9.333 21.5871 9.2828 21.6362C9.2326 21.6853 9.17264 21.7232 9.10682 21.7476C9.041 21.772 8.97078 21.7823 8.90073 21.7778H8.83855C6.50684 21.0245 4.5207 19.4634 3.23777 17.3757C1.95485 15.288 1.45943 12.8109 1.84075 10.3903C2.22206 7.96982 3.45504 5.76495 5.31766 4.17278C7.18029 2.58061 9.55016 1.70575 12.0005 1.70575C14.4509 1.70575 16.8208 2.58061 18.6834 4.17278C20.5461 5.76495 21.779 7.96982 22.1603 10.3903C22.5417 12.8109 22.0462 15.288 20.7633 17.3757C19.4804 19.4634 17.4943 21.0245 15.1625 21.7778V21.7833H15.1636Z" fill="black"/>
</svg>
