<svg width="24" height="20" viewBox="0 0 24 20" fill="none" xmlns="http://www.w3.org/2000/svg">
<path d="M24 2.30926C23.6715 2.80129 23.2985 3.26209 22.8857 3.68583C22.4708 4.11228 22.02 4.50229 21.5383 4.85154C21.5538 5.06663 21.5618 5.28219 21.5623 5.49783C21.5623 6.48183 21.4577 7.45383 21.2469 8.41554C21.0368 9.3738 20.73 10.3083 20.3314 11.2047C19.7793 12.4676 19.0497 13.6452 18.1646 14.7018C17.3163 15.7122 16.3226 16.591 15.216 17.3093C14.1055 18.0259 12.8953 18.5746 11.6246 18.9378C10.2986 19.3174 8.92552 19.5072 7.54629 19.5018C6.21621 19.5035 4.89265 19.3159 3.61543 18.9447C2.33536 18.572 1.11714 18.0129 0 17.2853C1.28944 17.4411 2.59696 17.3412 3.84773 16.9912C5.09849 16.6411 6.26795 16.0478 7.28914 15.2453C6.52518 15.2346 5.77444 15.0444 5.09755 14.69C4.42067 14.3356 3.83662 13.827 3.39257 13.2053C3.08971 12.7874 2.85427 12.3246 2.69486 11.8338C2.85086 11.8578 3.00514 11.8784 3.15771 11.8938C3.74613 11.9514 4.34012 11.8997 4.90971 11.7413C4.34787 11.6305 3.8103 11.4203 3.32229 11.1207C2.84941 10.8301 2.42774 10.4635 2.07429 10.0355C1.34866 9.15695 0.954324 8.0516 0.96 6.91211V6.85554C1.64914 7.24468 2.39486 7.45211 3.19886 7.47611C2.52845 7.01946 1.97804 6.40789 1.59429 5.69326C1.40636 5.34079 1.26077 4.96734 1.16057 4.58068C0.956469 3.76243 0.960594 2.90608 1.17257 2.08983C1.28057 1.67326 1.44857 1.27726 1.67657 0.901827C2.30057 1.67497 2.99657 2.36926 3.76114 2.98126C5.2807 4.19992 7.03656 5.09011 8.91772 5.59554C9.86723 5.84999 10.8415 6.00115 11.8234 6.0464C11.7761 5.86351 11.7428 5.67724 11.724 5.48926C11.7047 5.30073 11.695 5.11134 11.6949 4.92183C11.6949 4.24126 11.8234 3.60183 12.0823 3.00526C12.5842 1.82645 13.5229 0.887707 14.7017 0.385827C15.3067 0.126899 15.9585 -0.00441024 16.6166 0.000113007C17.2915 -0.00317009 17.9598 0.133625 18.5792 0.401849C19.1985 0.670073 19.7555 1.06389 20.2149 1.5584C21.3147 1.34127 22.3689 0.936507 23.3314 0.361827C22.9746 1.50418 22.206 2.47317 21.1749 3.08068C22.1499 2.96737 23.1023 2.70789 24 2.31097V2.30926Z" fill="black"/>
</svg>
