<svg width="49" height="53" viewBox="0 0 49 53" fill="none" xmlns="http://www.w3.org/2000/svg">
<path d="M1.75 29.75H47.25C47.25 5.25 43.75 0 24.5 0C5.25 0 1.75 5.25 1.75 29.75Z" fill="#231F20"/>
<path d="M45.325 24.4126C45.15 25.3751 44.975 26.2501 44.7125 26.7751C44.1875 27.6501 43.225 28.1751 43.225 28.1751C43.225 28.1751 43.4875 26.3376 43.4 23.8001C42.35 8.57509 41.475 12.7751 24.5 12.7751C7.525 12.7751 6.65 8.57509 5.6 23.7126C5.5125 26.2501 5.775 28.1751 5.775 28.1751C5.775 28.1751 4.8125 27.6501 4.2875 26.7751C4.025 26.2501 3.85 25.3751 3.675 24.4126C2.1 23.9751 0 24.3251 0 28.8751C0 31.6751 1.05 34.0376 4.6375 34.3001C5.775 43.2251 11.025 47.7751 19.6875 51.7126C22.05 52.7626 26.95 52.7626 29.3125 51.7126C38.0625 47.7751 43.225 43.2251 44.3625 34.3001C47.95 34.0376 49 31.7626 49 28.8751C49 24.3251 46.9 23.9751 45.325 24.4126Z" fill="#B47D56"/>
<path d="M32.375 41.0375C32.375 44.0125 28.4375 45.5 24.5 45.5C20.5625 45.5 16.625 44.0125 16.625 41.0375C16.625 41.0375 16.625 40.25 17.4125 40.25H31.5875C32.375 40.25 32.375 41.0375 32.375 41.0375Z" fill="#664E27"/>
<path d="M14 23.2751C9.625 23.2751 7.875 24.8501 7.875 26.4251C7.875 28.0001 7.875 30.2751 13.65 30.2751C19.25 30.2751 20.125 29.5751 20.125 27.2126C20.125 25.6376 18.375 23.2751 14 23.2751Z" fill="#F5F5F5"/>
<path d="M14.4375 29.8376C16.6121 29.8376 18.375 28.0747 18.375 25.9001C18.375 23.7255 16.6121 21.9626 14.4375 21.9626C12.2629 21.9626 10.5 23.7255 10.5 25.9001C10.5 28.0747 12.2629 29.8376 14.4375 29.8376Z" fill="#664E27"/>
<path d="M15.75 25.9001C15.75 26.6001 15.1375 27.2126 14.4375 27.2126C13.7375 27.2126 13.125 26.6001 13.125 25.9001C13.125 25.2001 13.7375 24.5876 14.4375 24.5876C15.1375 24.5876 15.75 25.2001 15.75 25.9001Z" fill="#231F20"/>
<path d="M7.875 26.3375C7.875 20.2125 20.125 20.2125 20.125 27.2125C18.375 21.9625 9.625 21.9625 7.875 26.3375Z" fill="#664E27"/>
<path d="M35 23.2751C39.375 23.2751 41.125 24.8501 41.125 26.4251C41.125 28.0001 41.125 30.2751 35.35 30.2751C29.75 30.2751 28.875 29.5751 28.875 27.2126C28.875 25.6376 30.625 23.2751 35 23.2751Z" fill="#F5F5F5"/>
<path d="M34.5625 29.8376C36.7371 29.8376 38.5 28.0747 38.5 25.9001C38.5 23.7255 36.7371 21.9626 34.5625 21.9626C32.3879 21.9626 30.625 23.7255 30.625 25.9001C30.625 28.0747 32.3879 29.8376 34.5625 29.8376Z" fill="#664E27"/>
<path d="M33.25 25.9001C33.25 26.6001 33.8625 27.2126 34.5625 27.2126C35.2625 27.2126 35.875 26.6001 35.875 25.9001C35.875 25.2001 35.2625 24.5876 34.5625 24.5876C33.8625 24.5876 33.25 25.2001 33.25 25.9001Z" fill="#231F20"/>
<path d="M41.125 26.3375C41.125 20.2125 28.875 20.2125 28.875 27.2125C30.625 21.9625 39.375 21.9625 41.125 26.3375Z" fill="#664E27"/>
<path d="M24.5001 37.625C20.8251 37.625 18.9876 35 20.8251 35H28.1751C30.0126 35 28.1751 37.625 24.5001 37.625Z" fill="#935E3E"/>
</svg>
